<svg xmlns="http://www.w3.org/2000/svg" viewBox="0 0 150 150">
  <path fill="#52595f" d="M54.95.01c.403.056.51.052.9.18s.474.194.832.39L75 12.027 93.318.577l.404-.22c.38-.15.47-.204.873-.284.603-.12 1.232-.092 1.822.082.394.116.48.18.844.364l30.51 17.79c.33.21.42.26.71.53.54.5.92 1.17 1.09 1.89.09.38.08.48.1.87v23.31l18.55 11.59.35.25c.29.25.37.3.61.6.36.44.61.97.74 1.53.09.37.08.47.1.85v30.51c-.02.38-.01.47-.09.85-.16.69-.52 1.34-1.02 1.85-.27.27-.36.31-.67.53l-18.55 11.59v23.31l-.02.44c-.06.38-.06.49-.2.86-.2.55-.53 1.06-.96 1.46-.28.27-.38.31-.7.53l-30.51 17.8c-.36.18-.45.24-.84.36-.74.21-1.534.2-2.27-.04-.39-.13-.47-.2-.83-.39L75 137.97l-18.318 11.45-.404.22c-.38.15-.47.206-.873.286-.603.12-1.232.092-1.822-.082-.394-.116-.48-.18-.843-.364l-30.51-17.796c-.325-.217-.42-.26-.704-.53-.535-.508-.916-1.17-1.085-1.89-.09-.382-.07-.484-.1-.874v-23.31L1.79 93.487l-.35-.247c-.284-.252-.368-.305-.606-.604-.358-.447-.612-.973-.74-1.532-.085-.372-.075-.47-.096-.85v-30.51c.02-.378.01-.477.096-.85.16-.697.52-1.345 1.026-1.85.27-.27.36-.313.67-.532L20.34 44.92V21.61l.025-.44c.067-.387.068-.49.202-.86.2-.554.53-1.06.96-1.465.284-.27.378-.313.704-.53L52.74.52c.364-.185.45-.25.843-.365.394-.116.5-.11.906-.15.15 0 .3.003.46.006z"/>
  <path fill="#fff" d="M75.447 34.335c.15.013.298.022.446.04.444.052.884.143 1.313.273.428.13.845.296 1.244.5.133.066.262.14.393.213l30.51 17.8c.332.21.42.26.734.49.59.44 1.114.97 1.552 1.56.7.95 1.17 2.06 1.38 3.22.2 1.16.13 2.37-.21 3.5-.21.71-.53 1.38-.93 2-.49.74-1.1 1.4-1.81 1.93-.32.24-.4.28-.74.49l-30.5 17.79c-.35.19-.43.25-.79.41-.82.36-1.69.57-2.58.62-1.04.07-2.08-.08-3.06-.43-.84-.3-1.62-.74-2.3-1.31-.57-.47-1.07-1.03-1.48-1.64-1.07-1.61-1.49-3.6-1.17-5.51.13-.73.36-1.44.69-2.1.46-.92 1.11-1.76 1.9-2.43.34-.28.704-.53 1.083-.76l19.22-11.21-15.35-9L52.12 64.13v21.747L75 99.22l26.665-15.554.39-.213c.404-.19.805-.366 1.233-.496.992-.3 2.042-.398 3.072-.283.882.1 1.746.354 2.54.75.664.328 1.277.754 1.818 1.26 1.302 1.216 2.147 2.88 2.362 4.65.09.735.07 1.482-.054 2.21-.176 1.022-.56 2.004-1.126 2.873-.485.743-1.1 1.4-1.81 1.934-.315.24-.404.29-.738.5l-30.51 17.8c-.13.07-.26.15-.392.22-.4.2-.816.37-1.244.5-1.432.43-2.98.43-4.412 0-.428-.13-.845-.3-1.244-.5l-.393-.21-30.51-17.8c-.124-.08-.25-.15-.374-.23-.368-.24-.714-.52-1.035-.82-1.07-1.02-1.83-2.34-2.17-3.78-.1-.43-.165-.87-.19-1.31-.01-.14-.01-.29-.014-.44V59.75c.005-.147.005-.294.013-.44.026-.442.09-.88.19-1.31.34-1.438 1.1-2.762 2.17-3.78.322-.303.668-.58 1.036-.824.123-.08.25-.154.375-.232l30.51-17.794c.395-.215.788-.415 1.212-.57.56-.206 1.144-.346 1.737-.416.395-.047.496-.04.893-.053l.447.02z"/>
</svg>
