<svg xmlns="http://www.w3.org/2000/svg" fill-rule="evenodd" stroke-linejoin="round" stroke-miterlimit="2" clip-rule="evenodd" viewBox="0 0 180 179">
  <path fill="#52595f" d="M69.95.01c.4.06.51.05.9.18s.47.2.83.39L90 12.03 108.32.58l.4-.22c.38-.15.47-.2.87-.29.6-.12 1.24-.09 1.83.09.4.11.48.18.84.36l30.5 17.8c.33.21.43.25.71.53.54.5.92 1.17 1.09 1.88.09.39.08.49.1.88v23.31l18.55 11.6.35.24c.28.25.37.3.6.6.36.45.62.98.74 1.54.09.37.08.47.1.84v30.51c-.02.38-.01.48-.1.85-.16.7-.52 1.35-1.02 1.86-.27.26-.36.3-.67.53l-18.55 11.59v23.31l-.02.44c-.07.39-.07.49-.2.86-.2.55-.54 1.06-.97 1.46-.28.27-.38.32-.7.53l-30.5 17.8c-.37.18-.46.25-.85.36-.74.22-1.54.2-2.27-.03-.39-.13-.47-.2-.83-.39L90 137.97l-18.32 11.45-.4.22c-.38.15-.47.2-.87.29-.6.12-1.24.09-1.83-.09-.4-.11-.48-.18-.84-.36l-30.5-17.8c-.34-.21-.43-.25-.71-.53a3.82 3.82 0 0 1-1.09-1.88c-.09-.39-.08-.49-.1-.88v-23.31l-18.55-11.6-.35-.24c-.28-.25-.37-.3-.6-.6a3.82 3.82 0 0 1-.74-1.54c-.09-.37-.08-.47-.1-.85v-30.5c.02-.38.01-.48.1-.85.16-.7.51-1.35 1.02-1.86.27-.27.36-.3.67-.53l18.55-11.59V21.61l.02-.44c.07-.39.07-.49.2-.86.2-.55.54-1.06.97-1.46.28-.28.38-.32.7-.53L67.74.52c.36-.18.45-.25.84-.36.4-.12.5-.11.9-.16l.47.01z"/>
  <clipPath id="a">
    <path d="M69.95.01c.4.06.51.05.9.18s.47.2.83.39L90 12.03 108.32.58l.4-.22c.38-.15.47-.2.87-.29.6-.12 1.24-.09 1.83.09.4.11.48.18.84.36l30.5 17.8c.33.21.43.25.71.53.54.5.92 1.17 1.09 1.88.09.39.08.49.1.88v23.31l18.55 11.6.35.24c.28.25.37.3.6.6.36.45.62.98.74 1.54.09.37.08.47.1.84v30.51c-.02.38-.01.48-.1.85-.16.7-.52 1.35-1.02 1.86-.27.26-.36.3-.67.53l-18.55 11.59v23.31l-.02.44c-.07.39-.07.49-.2.86-.2.55-.54 1.06-.97 1.46-.28.27-.38.32-.7.53l-30.5 17.8c-.37.18-.46.25-.85.36-.74.22-1.54.2-2.27-.03-.39-.13-.47-.2-.83-.39L90 137.97l-18.32 11.45-.4.22c-.38.15-.47.2-.87.29-.6.12-1.24.09-1.83-.09-.4-.11-.48-.18-.84-.36l-30.5-17.8c-.34-.21-.43-.25-.71-.53a3.82 3.82 0 0 1-1.09-1.88c-.09-.39-.08-.49-.1-.88v-23.31l-18.55-11.6-.35-.24c-.28-.25-.37-.3-.6-.6a3.82 3.82 0 0 1-.74-1.54c-.09-.37-.08-.47-.1-.85v-30.5c.02-.38.01-.48.1-.85.16-.7.51-1.35 1.02-1.86.27-.27.36-.3.67-.53l18.55-11.59V21.61l.02-.44c.07-.39.07-.49.2-.86.2-.55.54-1.06.97-1.46.28-.28.38-.32.7-.53L67.74.52c.36-.18.45-.25.84-.36.4-.12.5-.11.9-.16l.47.01z"/>
  </clipPath>
  <g clip-path="url(#a)">
    <path fill="#fff" fill-rule="nonzero" d="M90.45 34.34c.15 0 .3.02.44.03a7.66 7.66 0 0 1 2.56.78l.4.21 30.5 17.8a7.63 7.63 0 0 1 .73 12.69c-.3.23-.4.28-.73.48l-30.5 17.8c-.35.19-.44.24-.8.4a7.63 7.63 0 0 1-6.9-13.58l19.22-11.2L90 50.77 67.12 64.13v21.74L90 99.22l26.67-15.55.39-.22a7.67 7.67 0 0 1 8.66 1.23 7.67 7.67 0 0 1 1.18 9.74c-.48.74-1.1 1.4-1.81 1.93-.32.24-.4.28-.74.5l-30.5 17.79-.4.21a7.73 7.73 0 0 1-5.66.5c-.42-.13-.84-.3-1.24-.5l-.4-.21-30.5-17.8-.38-.23a7.68 7.68 0 0 1-3.4-5.91V59.75v-.45a7.72 7.72 0 0 1 2.37-5.08c.32-.3.66-.58 1.03-.83l.38-.23 30.5-17.8a7.68 7.68 0 0 1 2.95-.99c.4-.04.5-.04.9-.05l.45.01z"/>
  </g>
  <path fill="#52595f" d="M43.53 168.29c.8 0 1.47.67 1.47 1.5v4.85c0 .32-.12.65-.35.93a6.9 6.9 0 0 1-5.5 2.44c-4.71 0-7.39-3.56-7.39-8.26 0-4.77 2.82-8.26 7.42-8.26 2.28 0 4.17.84 5.5 2.42 1.27 1.5-1 3.33-2.24 1.93-.74-.93-1.82-1.4-3.26-1.4-2.95 0-4.46 2.22-4.46 5.31 0 3.03 1.4 5.3 4.44 5.3 1.16 0 2.14-.34 2.88-1.02v-2.79h-3.63c-1.97 0-1.9-2.95 0-2.95h5.12zm92.23 9.72c3.38 0 6.43-1.74 6.43-4.93 0-3.72-2.35-4.63-6-4.96-2.36-.14-2.99-.27-2.99-1.62 0-1.5 1.35-1.96 2.87-1.96.76 0 2.23.16 2.88.98 1.23 1.72 3.5.05 2.72-1.42-.97-1.84-3.49-2.6-5.6-2.6-3.42 0-5.91 1.95-5.91 5 0 3.53 2.25 4.42 5.81 4.67 2.84.21 3.17.51 3.17 1.91s-1.86 1.88-3.38 1.88c-.93 0-2.2-.14-2.74-.81-1.17-1.77-3.73-.37-2.84 1.14 1.35 2.1 3.28 2.72 5.58 2.72zm20.94 0c3.38 0 6.43-1.74 6.43-4.93 0-3.72-2.35-4.63-6-4.96-2.36-.14-2.99-.27-2.99-1.62 0-1.5 1.35-1.96 2.87-1.96.76 0 2.23.16 2.88.98 1.23 1.72 3.5.05 2.72-1.42-.97-1.84-3.49-2.6-5.6-2.6-3.42 0-5.91 1.95-5.91 5 0 3.53 2.25 4.42 5.81 4.67 2.84.21 3.17.51 3.17 1.91s-1.86 1.88-3.38 1.88c-.93 0-2.2-.14-2.74-.81-1.17-1.77-3.72-.37-2.84 1.14 1.35 2.1 3.28 2.72 5.58 2.72zm21.78-9.72c.8 0 1.47.67 1.47 1.5v4.85c0 .32-.12.65-.35.93a6.9 6.9 0 0 1-5.5 2.44c-4.71 0-7.4-3.56-7.4-8.26 0-4.77 2.82-8.26 7.43-8.26 2.28 0 4.17.84 5.5 2.42 1.27 1.5-1 3.33-2.24 1.93-.75-.93-1.82-1.4-3.26-1.4-2.95 0-4.47 2.22-4.47 5.31 0 3.03 1.4 5.3 4.45 5.3 1.16 0 2.14-.34 2.88-1.02v-2.79h-3.63c-1.97 0-1.9-2.95 0-2.95h5.12zM25.15 177.3c.82 1.21 2.77.47 2.77-.97v-13.17c0-2.07-3.14-2.07-3.14 0v7.8l-5.72-8.78c-.82-1.2-2.77-.47-2.77.98v13.17c0 2.07 3.14 2.07 3.14 0v-7.8l5.72 8.77zm48.86 0c.82 1.21 2.77.47 2.77-.97v-13.17c0-2.07-3.14-2.07-3.14 0v7.8l-5.72-8.78c-.82-1.2-2.77-.47-2.77.98v13.17c0 2.07 3.14 2.07 3.14 0v-7.8l5.72 8.77zm45.12-15.7c4.02 0 6.77 1.77 6.77 5.35a4.8 4.8 0 0 1-2.89 4.63l2.63 3.91c1.19 1.7-1.44 3.4-2.51 1.72l-3.33-4.93-3.05-.03v4.1c0 2.02-3.04 1.98-3.04 0v-13.22c0-.93.79-1.53 1.5-1.53h3.92zm-109.06 0c.87 0 1.56.7 1.56 1.56 0 .88-.7 1.58-1.56 1.58H3.14v3.44H7.9c.88 0 1.58.7 1.58 1.56 0 .86-.7 1.56-1.58 1.56H3.14v3.44h6.93c.87 0 1.56.7 1.56 1.59 0 .86-.7 1.56-1.56 1.56H1.74c-.95 0-1.74-.77-1.74-1.73v-12.84c0-.95.8-1.72 1.74-1.72h8.33zm48.84 0c.89 0 1.58.7 1.58 1.56 0 .88-.7 1.65-1.58 1.58l-2.67-.28v10.56l2.67-.28c.89-.07 1.58.7 1.58 1.59 0 .86-.7 1.56-1.58 1.56h-8.47c-.88 0-1.58-.7-1.58-1.56 0-.89.7-1.66 1.58-1.59l2.68.28v-10.56l-2.68.28c-.88.07-1.58-.7-1.58-1.58 0-.86.7-1.56 1.58-1.56h8.47zm32.6 0c.86 0 1.56.7 1.56 1.56 0 .88-.7 1.58-1.56 1.58h-6.93v3.44h4.74c.89 0 1.58.7 1.58 1.56 0 .86-.7 1.56-1.58 1.56h-4.74v3.44h6.93c.86 0 1.56.7 1.56 1.59 0 .86-.7 1.56-1.56 1.56h-8.33c-.95 0-1.75-.77-1.75-1.73v-12.84c0-.95.8-1.72 1.75-1.72h8.33zm16.29 0c.86 0 1.55.7 1.55 1.56 0 .88-.7 1.58-1.55 1.58h-6.94v3.44h4.75c.88 0 1.58.7 1.58 1.56 0 .86-.7 1.56-1.58 1.56h-4.75v3.44h6.94c.86 0 1.55.7 1.55 1.59 0 .86-.7 1.56-1.55 1.56h-8.33c-.96 0-1.75-.77-1.75-1.73v-12.84c0-.95.8-1.72 1.75-1.72h8.33zm38.76 6.2a1.94 1.94 0 1 1 0 3.88 1.94 1.94 0 0 1 0-3.88zm-27.43 1.43c2.28 0 3.74-.53 3.74-2.28 0-1.81-1.46-2.3-3.74-2.3h-2.38v4.58h2.38z"/>
</svg>
