<svg xmlns="http://www.w3.org/2000/svg" fill-rule="evenodd" stroke-linejoin="round" stroke-miterlimit="2" clip-rule="evenodd" viewBox="0 0 230 193">
  <path fill="#52595f" d="M94.95.01c.4.06.51.05.9.18s.47.2.83.39L115 12.03 133.32.58l.4-.22c.38-.15.47-.2.87-.29.6-.12 1.24-.09 1.83.09.4.11.48.18.84.36l30.5 17.8c.33.21.43.25.71.53.54.5.92 1.17 1.09 1.88.09.39.08.49.1.88v23.31l18.55 11.6.35.24c.28.25.37.3.6.6.36.45.62.98.74 1.54.09.37.08.47.1.84v30.51c-.02.38-.01.48-.1.85-.16.7-.52 1.35-1.02 1.86-.27.26-.36.3-.67.53l-18.55 11.59v23.31l-.02.44c-.07.39-.07.49-.2.86-.2.55-.54 1.06-.97 1.46-.28.27-.38.32-.7.53l-30.5 17.8c-.37.18-.46.25-.85.36-.74.22-1.54.2-2.27-.03-.39-.13-.47-.2-.83-.39L115 137.97l-18.32 11.45-.4.22c-.38.15-.47.2-.88.29-.6.12-1.23.09-1.82-.09-.4-.11-.48-.18-.84-.36l-30.5-17.8c-.34-.21-.43-.25-.71-.53a3.82 3.82 0 0 1-1.09-1.88c-.09-.39-.08-.49-.1-.88v-23.31l-18.55-11.6-.35-.24c-.28-.25-.37-.3-.6-.6a3.82 3.82 0 0 1-.74-1.54c-.09-.37-.08-.47-.1-.85v-30.5c.02-.38.01-.48.1-.85.16-.7.51-1.35 1.02-1.86.27-.27.36-.3.67-.53l18.55-11.59V21.61l.02-.44c.07-.39.07-.49.2-.86.2-.55.54-1.06.97-1.46.28-.28.37-.32.7-.53L92.74.52c.36-.18.45-.25.84-.36.4-.12.5-.11.9-.16l.47.01z"/>
  <clipPath id="a">
    <path d="M94.95.01c.4.06.51.05.9.18s.47.2.83.39L115 12.03 133.32.58l.4-.22c.38-.15.47-.2.87-.29.6-.12 1.24-.09 1.83.09.4.11.48.18.84.36l30.5 17.8c.33.21.43.25.71.53.54.5.92 1.17 1.09 1.88.09.39.08.49.1.88v23.31l18.55 11.6.35.24c.28.25.37.3.6.6.36.45.62.98.74 1.54.09.37.08.47.1.84v30.51c-.02.38-.01.48-.1.85-.16.7-.52 1.35-1.02 1.86-.27.26-.36.3-.67.53l-18.55 11.59v23.31l-.02.44c-.07.39-.07.49-.2.86-.2.55-.54 1.06-.97 1.46-.28.27-.38.32-.7.53l-30.5 17.8c-.37.18-.46.25-.85.36-.74.22-1.54.2-2.27-.03-.39-.13-.47-.2-.83-.39L115 137.97l-18.32 11.45-.4.22c-.38.15-.47.2-.88.29-.6.12-1.23.09-1.82-.09-.4-.11-.48-.18-.84-.36l-30.5-17.8c-.34-.21-.43-.25-.71-.53a3.82 3.82 0 0 1-1.09-1.88c-.09-.39-.08-.49-.1-.88v-23.31l-18.55-11.6-.35-.24c-.28-.25-.37-.3-.6-.6a3.82 3.82 0 0 1-.74-1.54c-.09-.37-.08-.47-.1-.85v-30.5c.02-.38.01-.48.1-.85.16-.7.51-1.35 1.02-1.86.27-.27.36-.3.67-.53l18.55-11.59V21.61l.02-.44c.07-.39.07-.49.2-.86.2-.55.54-1.06.97-1.46.28-.28.37-.32.7-.53L92.74.52c.36-.18.45-.25.84-.36.4-.12.5-.11.9-.16l.47.01z"/>
  </clipPath>
  <g clip-path="url(#a)">
    <path fill="#fff" fill-rule="nonzero" d="M115.45 34.34c.15 0 .3.02.44.03a7.66 7.66 0 0 1 2.56.78l.4.21 30.5 17.8a7.63 7.63 0 0 1 .74 12.69c-.32.23-.4.28-.74.48l-30.5 17.8c-.35.19-.44.24-.8.4a7.63 7.63 0 0 1-6.9-13.58l19.22-11.2L115 50.77 92.12 64.13v21.74L115 99.22l26.67-15.55.39-.22a7.67 7.67 0 0 1 8.66 1.23 7.67 7.67 0 0 1 1.18 9.74c-.48.74-1.1 1.4-1.81 1.93-.32.24-.4.28-.74.5l-30.5 17.79-.4.21a7.73 7.73 0 0 1-5.66.5c-.42-.13-.84-.3-1.24-.5l-.4-.21-30.5-17.8-.38-.23a7.68 7.68 0 0 1-3.4-5.91V59.75v-.45a7.72 7.72 0 0 1 2.37-5.08c.32-.3.67-.58 1.03-.83l.38-.23 30.5-17.8a7.68 7.68 0 0 1 2.95-.99c.4-.04.5-.04.9-.05l.45.01z"/>
  </g>
  <path fill="#52595f" d="M55.63 179.8c1 0 1.87.87 1.87 1.94v6.18c0 .42-.15.83-.45 1.2a8.82 8.82 0 0 1-7.01 3.11c-6.04 0-9.46-4.55-9.46-10.55 0-6.1 3.6-10.56 9.49-10.56a8.8 8.8 0 0 1 7.01 3.1c1.64 1.9-1.28 4.25-2.85 2.46-.95-1.18-2.32-1.78-4.16-1.78-3.78 0-5.71 2.82-5.71 6.78 0 3.86 1.78 6.78 5.68 6.78 1.48 0 2.73-.45 3.68-1.31v-3.57H49.1c-2.53 0-2.44-3.77 0-3.77h6.53zm117.85 12.43c4.3 0 8.2-2.23 8.2-6.3 0-4.76-3-5.92-7.67-6.33-3-.18-3.8-.36-3.8-2.08 0-1.9 1.72-2.5 3.65-2.5.98 0 2.86.2 3.69 1.25 1.57 2.2 4.46.06 3.48-1.82-1.25-2.34-4.46-3.33-7.17-3.33-4.37 0-7.55 2.5-7.55 6.4 0 4.52 2.89 5.65 7.43 5.97 3.63.27 4.05.66 4.05 2.44 0 1.78-2.38 2.4-4.31 2.4-1.2 0-2.83-.17-3.51-1.03-1.49-2.26-4.76-.48-3.63 1.45 1.73 2.68 4.2 3.48 7.14 3.48zm26.75 0c4.31 0 8.2-2.23 8.2-6.3 0-4.76-3-5.92-7.66-6.33-3-.18-3.8-.36-3.8-2.08 0-1.9 1.72-2.5 3.65-2.5.98 0 2.85.2 3.69 1.25 1.57 2.2 4.46.06 3.47-1.82-1.24-2.34-4.45-3.33-7.16-3.33-4.37 0-7.55 2.5-7.55 6.4 0 4.52 2.88 5.65 7.43 5.97 3.63.27 4.04.66 4.04 2.44 0 1.78-2.37 2.4-4.3 2.4-1.2 0-2.83-.17-3.51-1.03-1.5-2.26-4.76-.48-3.63 1.45 1.72 2.68 4.19 3.48 7.13 3.48zm27.83-12.42c1.01 0 1.87.86 1.87 1.93v6.18c0 .42-.15.83-.44 1.2a8.82 8.82 0 0 1-7.02 3.11c-6.03 0-9.45-4.55-9.45-10.55 0-6.1 3.6-10.56 9.48-10.56a8.8 8.8 0 0 1 7.02 3.1c1.63 1.9-1.28 4.25-2.86 2.46-.95-1.18-2.32-1.78-4.16-1.78-3.78 0-5.7 2.82-5.7 6.78 0 3.86 1.78 6.78 5.67 6.78 1.49 0 2.74-.45 3.69-1.31v-3.57h-4.64c-2.53 0-2.44-3.77 0-3.77h6.54zM32.14 191.34c1.04 1.55 3.54.6 3.54-1.25v-16.82c0-2.65-4.02-2.65-4.02 0v9.96l-7.31-11.21c-1.04-1.55-3.54-.6-3.54 1.25v16.82c0 2.65 4.02 2.65 4.02 0v-9.96l7.3 11.21zm62.43 0c1.04 1.55 3.54.6 3.54-1.25v-16.82c0-2.65-4.01-2.65-4.01 0v9.96l-7.32-11.21c-1.04-1.55-3.53-.6-3.53 1.25v16.82c0 2.65 4 2.65 4 0v-9.96l7.32 11.21zm57.65-20.07c5.14 0 8.65 2.26 8.65 6.84 0 2.74-1.22 4.7-3.69 5.92l3.36 5c1.52 2.16-1.84 4.33-3.2 2.2l-4.26-6.31-3.9-.03v5.23c0 2.59-3.89 2.53-3.89 0v-16.88a1.97 1.97 0 0 1 1.93-1.97h5zm-139.35 0a2 2 0 0 1 2 2 2 2 0 0 1-2 2.02H4.01v4.4h6.07a2 2 0 0 1 2.02 1.99 2 2 0 0 1-2.02 2H4v4.4h8.86a2 2 0 0 1 2 2.01 2 2 0 0 1-2 2H2.23a2.22 2.22 0 0 1-2.23-2.2v-16.42c0-1.22 1.01-2.2 2.23-2.2h10.64zm62.4 0a2 2 0 0 1 2.03 2c0 1.13-.9 2.1-2.02 2.02l-3.42-.36v13.5l3.42-.36c1.13-.09 2.02.9 2.02 2.02a2 2 0 0 1-2.02 2H64.45a2 2 0 0 1-2.02-2c0-1.13.9-2.1 2.02-2.02l3.42.36v-13.5l-3.42.36c-1.13.09-2.02-.9-2.02-2.02 0-1.1.9-2 2.02-2h10.83zm41.66 0a2 2 0 0 1 2 2 2 2 0 0 1-2 2.02h-8.86v4.4h6.06a2 2 0 0 1 2.03 1.99 2 2 0 0 1-2.03 2h-6.06v4.4h8.86a2 2 0 0 1 2 2.01 2 2 0 0 1-2 2h-10.65a2.22 2.22 0 0 1-2.22-2.2v-16.42c0-1.22 1-2.2 2.22-2.2h10.65zm20.81 0a2 2 0 0 1 2 2 2 2 0 0 1-2 2.02h-8.86v4.4h6.07a2 2 0 0 1 2.02 1.99 2 2 0 0 1-2.03 2h-6.06v4.4h8.86a2 2 0 0 1 2 2.01 2 2 0 0 1-2 2H127.1a2.22 2.22 0 0 1-2.23-2.2v-16.42c0-1.22 1-2.2 2.23-2.2h10.64zm49.53 7.93a2.48 2.48 0 1 1 0 4.95 2.48 2.48 0 0 1 0-4.95zm-35.05 1.83c2.91 0 4.78-.69 4.78-2.92 0-2.32-1.87-2.94-4.78-2.94h-3.03v5.86h3.03z"/>
</svg>
