<svg xmlns="http://www.w3.org/2000/svg" xmlns:serif="http://www.serif.com/" fill-rule="evenodd" stroke-linejoin="round" stroke-miterlimit="2" clip-rule="evenodd" viewBox="0 0 150 150">
  <g transform="translate(-985 -440)" serif:id="White Logo">
    <path fill="#fff" d="M1039.95 440.01c.4.06.51.05.9.18s.47.2.83.39l18.32 11.45 18.32-11.45.4-.22c.38-.15.47-.2.88-.29.6-.12 1.23-.09 1.82.09.39.11.48.18.84.36l30.51 17.8c.33.21.42.25.7.53.54.5.92 1.17 1.09 1.88.09.39.08.49.1.88v23.31l18.55 11.6.35.24c.28.25.37.3.6.6.36.45.62.98.74 1.54.09.37.08.47.1.85v30.5c-.02.38-.01.48-.1.86-.16.7-.52 1.34-1.02 1.85-.27.27-.36.3-.67.53l-18.55 11.59v23.31l-.03.44c-.06.39-.06.49-.2.86-.2.55-.53 1.06-.96 1.46-.28.28-.37.32-.7.53l-30.51 17.8c-.36.18-.45.25-.84.37-.74.21-1.54.2-2.27-.04-.39-.13-.47-.2-.83-.39L1060 577.97l-18.32 11.45-.4.22c-.38.15-.47.2-.88.29-.6.12-1.23.09-1.82-.08-.39-.12-.48-.19-.84-.37l-30.51-17.8c-.33-.21-.42-.25-.7-.52a3.8 3.8 0 0 1-1.09-1.9c-.09-.38-.08-.48-.1-.87v-23.31l-18.55-11.6-.35-.24c-.28-.25-.37-.3-.6-.6a3.7 3.7 0 0 1-.74-1.53c-.09-.38-.08-.48-.1-.86v-30.5c.02-.38.01-.48.1-.85.16-.7.52-1.35 1.02-1.86.27-.27.36-.3.67-.53l18.55-11.59v-23.3l.03-.45c.06-.39.06-.49.2-.86.2-.55.53-1.06.96-1.46.28-.28.37-.32.7-.53l30.51-17.8c.36-.18.45-.25.84-.36.4-.12.5-.11.91-.16l.46.01zm20.5 34.33a7.64 7.64 0 0 1 3 .81l.39.21 30.51 17.8c.33.2.42.25.74.49a7.65 7.65 0 0 1 0 12.2c-.32.23-.41.28-.74.48l-30.51 17.8c-.34.19-.43.25-.79.4a7.62 7.62 0 0 1-6.89-13.58l19.21-11.2-15.37-8.97-22.88 13.35v21.74l22.88 13.35 26.66-15.55.4-.22a7.66 7.66 0 0 1 8.66 1.23 7.65 7.65 0 0 1-.63 11.67c-.31.24-.4.28-.74.5l-30.51 17.79-.39.21a7.7 7.7 0 0 1-6.9 0l-.39-.21-30.51-17.8a7.46 7.46 0 0 1-1.41-1.06 7.67 7.67 0 0 1-2.36-5.08l-.02-.45v-30.5l.02-.45a7.67 7.67 0 0 1 3.77-6.15l30.51-17.79a7.61 7.61 0 0 1 2.95-.99c.39-.04.49-.04.89-.05l.45.02z"/>
  </g>
</svg>