<svg xmlns="http://www.w3.org/2000/svg" viewBox="0 0 760 180">
  <path fill="#52595f" d="M74.95 15.01c.403.056.51.052.9.18s.474.195.832.39L95 27.028l18.318-11.448.404-.22c.38-.15.47-.207.873-.287.603-.12 1.232-.09 1.822.083.394.116.48.18.844.363l30.51 17.79c.33.21.42.26.71.53.54.51.92 1.17 1.09 1.89.09.38.08.48.1.87v23.31l18.55 11.59.35.25c.29.25.37.3.61.6.36.44.61.97.74 1.53.09.37.08.47.1.85v30.51c-.02.38-.01.47-.09.85-.16.69-.52 1.34-1.02 1.85-.27.27-.36.31-.67.53l-18.55 11.59v23.31l-.025.44c-.07.38-.07.49-.203.86-.2.55-.53 1.06-.96 1.46-.283.27-.38.31-.703.53l-30.51 17.79c-.364.187-.45.25-.843.366-.74.217-1.53.205-2.262-.035-.39-.122-.474-.19-.83-.39L95 152.976 76.682 164.42l-.404.22c-.38.15-.47.207-.873.287-.603.12-1.232.09-1.822-.083-.394-.115-.48-.18-.843-.363l-30.51-17.79c-.325-.21-.42-.25-.704-.53-.535-.5-.916-1.17-1.085-1.88-.09-.38-.07-.48-.1-.87V120.1l-18.55-11.6-.35-.247c-.28-.25-.36-.304-.6-.602-.36-.44-.61-.97-.74-1.53-.08-.37-.07-.47-.09-.85V74.75c.02-.38.01-.478.1-.85.16-.7.52-1.346 1.03-1.85.27-.27.36-.315.67-.534L40.34 59.92V36.61l.025-.44c.067-.386.068-.49.202-.86.2-.553.53-1.058.96-1.465.284-.27.378-.312.704-.53L72.74 15.52c.364-.185.45-.25.843-.364.394-.116.5-.11.906-.152l.46.007z"/>
  <path fill="#fff" d="M95.447 49.335c.15.013.298.022.446.04.444.052.884.143 1.313.273.428.13.845.297 1.244.5.133.066.262.142.393.213l30.51 17.8c.332.21.42.25.734.49.59.44 1.114.97 1.552 1.56.7.95 1.17 2.06 1.38 3.22.2 1.16.13 2.37-.21 3.5-.21.71-.53 1.38-.93 2-.49.74-1.1 1.4-1.81 1.93-.32.24-.4.28-.74.49l-30.5 17.79c-.35.19-.43.25-.79.41-.82.36-1.69.57-2.58.628-1.04.064-2.08-.084-3.06-.434-.835-.3-1.617-.74-2.3-1.31-.568-.47-1.067-1.03-1.477-1.64-1.07-1.61-1.49-3.604-1.164-5.51.13-.73.36-1.44.69-2.1.46-.93 1.11-1.76 1.9-2.43.34-.29.705-.53 1.084-.77l19.22-11.21L95 65.78 72.12 79.126v21.746L95 114.22l26.665-15.554.39-.212c.404-.19.805-.366 1.233-.497.992-.3 2.042-.398 3.072-.282.882.1 1.746.353 2.54.748.664.33 1.277.755 1.818 1.26 1.302 1.217 2.147 2.883 2.362 4.652.09.734.07 1.48-.054 2.21-.176 1.02-.56 2.004-1.126 2.872-.485.744-1.1 1.4-1.81 1.935-.315.237-.404.282-.738.49l-30.51 17.797-.392.21c-.4.2-.816.37-1.244.5-1.432.43-2.98.43-4.412 0-.428-.13-.845-.3-1.244-.5-.133-.07-.262-.15-.393-.22l-30.51-17.8-.374-.24c-.368-.25-.714-.52-1.035-.83-1.07-1.02-1.83-2.34-2.17-3.78-.1-.43-.165-.87-.19-1.31-.01-.15-.01-.3-.014-.44v-30.5c.005-.15.005-.3.013-.45.026-.44.09-.88.19-1.31.34-1.434 1.1-2.76 2.17-3.776.322-.304.668-.58 1.036-.825.123-.08.25-.15.375-.23l30.51-17.798c.395-.218.788-.417 1.212-.57.56-.21 1.144-.35 1.737-.42.395-.05.496-.04.893-.054.15.002.298.01.447.01z"/>
  <path fill="#52595f" d="M329.065 85.23c2.347 0 4.35 2.003 4.35 4.488v14.36c0 .965-.346 1.932-1.036 2.76-3.94 4.695-9.53 7.25-16.3 7.25-14.02 0-21.96-10.563-21.96-24.508 0-14.152 8.35-24.507 22.02-24.507 6.76 0 12.35 2.485 16.29 7.18 3.8 4.418-2.97 9.87-6.63 5.73-2.21-2.762-5.39-4.143-9.67-4.143-8.77 0-13.26 6.558-13.26 15.74 0 8.974 4.142 15.74 13.19 15.74 3.45 0 6.35-1.036 8.56-3.038v-8.284h-10.77c-5.87 0-5.66-8.767 0-8.767h15.184zm273.65 28.857c10.01 0 19.052-5.178 19.052-14.635 0-11.046-6.972-13.738-17.81-14.704-6.973-.415-8.837-.83-8.837-4.833 0-4.418 4.004-5.8 8.49-5.8 2.28 0 6.63.485 8.562 2.9 3.658 5.11 10.355.14 8.077-4.21-2.9-5.454-10.36-7.732-16.64-7.732-10.15 0-17.54 5.8-17.54 14.842 0 10.493 6.69 13.117 17.26 13.876 8.42.63 9.39 1.52 9.39 5.67 0 4.14-5.53 5.59-10.01 5.59-2.76 0-6.56-.41-8.15-2.41-3.45-5.24-11.05-1.1-8.42 3.39 4 6.22 9.73 8.08 16.57 8.08zm62.13 0c10.01 0 19.052-5.178 19.052-14.635 0-11.046-6.972-13.738-17.81-14.704-6.973-.415-8.837-.83-8.837-4.833 0-4.418 4.004-5.8 8.492-5.8 2.278 0 6.627.485 8.56 2.9 3.66 5.11 10.355.14 8.077-4.21-2.9-5.454-10.36-7.732-16.64-7.732-10.15 0-17.54 5.8-17.54 14.842 0 10.493 6.69 13.117 17.26 13.876 8.42.63 9.39 1.52 9.39 5.67 0 4.14-5.53 5.59-10.01 5.59-2.76 0-6.56-.41-8.15-2.41-3.45-5.24-11.05-1.1-8.42 3.39 4 6.22 9.73 8.08 16.57 8.08zM729.46 85.23c2.347 0 4.35 2.003 4.35 4.488v14.36c0 .965-.346 1.932-1.037 2.76-3.935 4.695-9.526 7.25-16.292 7.25-14.01 0-21.95-10.563-21.95-24.508 0-14.152 8.36-24.507 22.02-24.507 6.77 0 12.36 2.485 16.3 7.18 3.8 4.418-2.97 9.87-6.62 5.73-2.21-2.762-5.38-4.143-9.66-4.143-8.76 0-13.25 6.558-13.25 15.74 0 8.974 4.14 15.74 13.19 15.74 3.458 0 6.357-1.036 8.56-3.038v-8.284H714.3c-5.868 0-5.66-8.767 0-8.767h15.19zm-454.93 26.786c2.415 3.59 8.214 1.38 8.214-2.9V70.043c0-6.144-9.32-6.144-9.32 0V93.17l-16.982-26.026c-2.416-3.59-8.215-1.38-8.215 2.9v39.072c0 6.144 9.32 6.144 9.32 0V85.99l16.982 26.026zm144.97 0c2.415 3.59 8.214 1.38 8.214-2.9V70.043c0-6.144-9.32-6.144-9.32 0V93.17l-16.982-26.026c-2.416-3.59-8.215-1.38-8.215 2.9v39.072c0 6.144 9.32 6.144 9.32 0V85.99l16.982 26.026zm133.855-46.598c11.943 0 20.09 5.247 20.09 15.878 0 6.35-2.832 10.907-8.56 13.738l7.8 11.597c3.52 5.04-4.28 10.08-7.456 5.11l-9.88-14.63-9.05-.07v12.15c0 6.01-9.05 5.87-9.05 0V69.98c0-2.763 2.34-4.558 4.48-4.558h11.592zm-323.56 0c2.554 0 4.625 2.07 4.625 4.625 0 2.624-2.07 4.695-4.625 4.695h-20.572v10.217h14.083c2.623 0 4.694 2.07 4.694 4.625 0 2.554-2.07 4.625-4.694 4.625h-14.083v10.217h20.572c2.554 0 4.625 2.07 4.625 4.694 0 2.555-2.07 4.626-4.625 4.626H205.08c-2.83 0-5.177-2.278-5.177-5.11V70.528c0-2.83 2.347-5.11 5.178-5.11h24.72zm144.9 0c2.625 0 4.696 2.07 4.696 4.625 0 2.624-2.07 4.902-4.69 4.695l-7.94-.83v31.342l7.94-.828c2.63-.207 4.7 2.07 4.7 4.694 0 2.555-2.07 4.626-4.69 4.626h-25.13c-2.62 0-4.69-2.07-4.69-4.626 0-2.623 2.07-4.9 4.7-4.694l7.94.828V73.91l-7.94.828c-2.62.207-4.69-2.07-4.69-4.695 0-2.554 2.07-4.625 4.7-4.625h25.13zm96.717 0c2.555 0 4.625 2.07 4.625 4.625 0 2.624-2.07 4.695-4.625 4.695H450.84v10.217h14.083c2.623 0 4.694 2.07 4.694 4.625 0 2.554-2.07 4.625-4.694 4.625H450.84v10.217h20.572c2.554 0 4.625 2.07 4.625 4.694 0 2.555-2.07 4.626-4.625 4.626h-24.714c-2.83 0-5.177-2.278-5.177-5.11V70.528c0-2.83 2.35-5.11 5.18-5.11h24.72zm48.324 0c2.554 0 4.625 2.07 4.625 4.625 0 2.624-2.07 4.695-4.62 4.695h-20.57v10.217h14.09c2.63 0 4.7 2.07 4.7 4.625 0 2.554-2.07 4.625-4.69 4.625h-14.09v10.217h20.58c2.557 0 4.628 2.07 4.628 4.694 0 2.555-2.07 4.626-4.623 4.626h-24.72c-2.83 0-5.18-2.278-5.18-5.11V70.528c0-2.83 2.348-5.11 5.18-5.11h24.713zm115.015 18.41c3.17 0 5.74 2.577 5.74 5.752s-2.57 5.753-5.73 5.753-5.73-2.578-5.73-5.753c0-3.175 2.57-5.753 5.74-5.753zm-81.39 4.232c6.77 0 11.12-1.584 11.12-6.76 0-5.386-4.35-6.835-11.11-6.835h-7.04v13.6h7.04z"/>
</svg>
